<?xml version="1.0" encoding="iso-8859-1"?>
<!-- Generator: Adobe Illustrator 16.0.0, SVG Export Plug-In . SVG Version: 6.00 Build 0)  -->
<!DOCTYPE svg PUBLIC "-//W3C//DTD SVG 1.1//EN" "http://www.w3.org/Graphics/SVG/1.1/DTD/svg11.dtd">
<svg version="1.1" id="Capa_1" xmlns="http://www.w3.org/2000/svg" xmlns:xlink="http://www.w3.org/1999/xlink" x="0px"
     y="0px"
     width="192.761px" height="192.761px" viewBox="0 0 192.761 192.761"
     style="enable-background:new 0 0 192.761 192.761;"
     xml:space="preserve">
<g>
	<path d="M188.066,86.658c0.6-0.896,0.959-1.977,0.977-2.986C190.99-21.439-3.398,1.173,14.646,79.036
		C7.309,80.845,1.061,86.645,0.111,94.637c-1.041,8.763,5.373,12.192,12.489,12.412c-0.825,2.995-1.188,6.135-0.771,9.023
		c-9.217,9.454-6.541,18.01,1.049,23.683c-4.014,2.321-5.694,7.331-5.256,13.236c0.747,10.075,9.241,18.303,17.917,22.258
		c22.036,10.046,51.674,1.616,75.114,1.829c20.446,0.186,109.854,0.438,79.364-40.825c7.899-5.841,9.215-14.66-2.339-27.998
		c2.699-0.202,5.314-0.484,7.597-1.147C196.417,103.866,193.161,93.306,188.066,86.658z M162.202,42.378
		c5.569,4.897,9.913,11.142,12.783,17.963c1.236,2.938,2.009,6.046,2.717,9.143c0.431,2.022,0.722,4.066,0.874,6.13
		c0.272,2.726-1.349,5.52,1.43,4.209c-14.674,6.924-33.704,8.268-49.545,10.231c-19.781,2.452-39.829,3.655-59.757,2.999
		c-10.363-0.341-38.317-0.224-43.216-12.639c-0.857-2.171-2.636-3.262-4.499-3.52C18.615,14.841,126.911,11.35,162.202,42.378z
		 M7.462,92.401c1.559-3.663,4.908-6.57,8.546-8.642c0.301,0.903,0.594,1.805,0.952,2.722c0.654,1.676,1.989,2.454,3.333,2.53
		c13.387,18.258,51.371,15.867,69.895,15.521c0.251-0.006,0.51-0.013,0.762-0.018c-1.72,4.328-3.373,8.341-6.962,11.795
		c-5.472,5.268-12.45,2.8-17.57-1.455c-1.455-1.209-3.184-0.637-4.01,0.521c-0.236-0.289-0.542-0.528-0.982-0.622
		c-6.464-1.386-11.612,4.56-16.685-3.003c-1.119-1.668-3.304-1.626-4.431,0c-3.712,5.358-7.983,9.336-14.821,9.464
		c-9.397,0.176-9.002-9.666-6.121-15.861c0.846-1.818-0.11-4.655-2.544-4.434C10.594,101.488,4.28,99.88,7.462,92.401z
		 M109.805,170.314c-13.262,0.116-26.267,0.337-39.515,1.301c-10.135,0.736-20.248,1.063-30.381,0.167
		c-6-0.531-12.329-2.101-17.006-6.068c-5.791-4.913-14.47-16.99-3.617-22.337c2.156,0.928,4.455,1.706,6.857,2.27
		c23.534,5.522,48.759,2.966,72.667,2.275c12.756-0.368,54.818,0.957,75.562-8.432C194.728,171.2,127.79,170.158,109.805,170.314z
		 M173.475,133.327c-8.171,4.991-19.685,5.831-28.929,6.676c-15.251,1.395-30.475,0.331-45.737,0.661
		c-17.031,0.369-33.992,1.454-51.038,0.766c-8.852-0.357-17.727-1.387-26.194-4.071c-9.416-2.983-9.639-8.171-6.683-14.656
		c1.159,1.221,2.657,2.255,4.584,3.01c8.684,3.404,18.535-0.711,23.53-8.207c1.63,1.715,3.563,3.229,5.909,3.312
		c4.21,0.15,7.708-2.354,11.967-2.064c0.66,0.045,1.149-0.244,1.488-0.665c0.106,0.164,0.169,0.332,0.321,0.491
		c5.947,6.218,13.66,8.392,21.596,4.678c5.356-2.507,9.41-8.409,10.898-14.479c5.604,9.813,16.22,13.347,25.375,5.074
		c7.271,14.966,30.06,21.61,37.099,2.469c2.123-5.773,7.849-7.072,14.083-7.636c-0.218,0.698-0.159,1.466,0.384,2.195
		C177.624,118.254,183.637,127.119,173.475,133.327z M169.753,103.696c-0.368-0.1-0.736-0.1-1.105,0
		c-4.664,1.536-6.648,3.386-12.298,3.562c-1.23,0.038-2.013,0.938-2.115,2.115c-1.82,20.812-26.386,16.18-30.392-0.655
		c-0.416-1.746-2.893-2.455-4.115-1.086c-7.943,8.891-18.038,5.996-23.087-3.252c28.662-0.784,61.322-3.577,87.47-15.203
		C184.32,102.263,179.537,107.107,169.753,103.696z"/>
    <path d="M55.008,45.619c-2.715,0.433-5.208-0.16-7.817,1.051c-3.431,1.594-3.873,6.199-3.871,9.463
		c0.001,0.926,0.528,2.086,1.425,2.484c2.018,0.896,3.716,1.277,5.911,0.945c1.286-0.195,2.266-1.013,3.44-1.413
		c1.839-0.626,2.146-3.557,0-4.032c-1.682-0.372-3.309,0.122-4.927-0.057c0.066-0.754,0.178-1.5,0.396-2.229
		c0.182-0.607,0.593-0.915,0.883-1.094c1.552-0.961,3.803-1.675,5.627-2.587C57.589,47.393,56.445,45.389,55.008,45.619z"/>
    <path d="M77.031,42.386c-0.271-2.626-1.381-4.662-3.116-6.627c-0.897-1.016-2.337-0.968-3.455-0.446
		c-2.814,1.315-5.643,3.314-5.882,6.688c-0.169,2.388,1.192,4.47,1.477,6.789c0.338,2.749,4.111,2.84,4.345,0
		c0.155-1.891-0.158-3.707-0.332-5.582c-0.061-0.659-0.1-0.583,0.192-0.905c0.268-0.296,0.632-0.527,0.977-0.77
		c0.371,0.691,0.602,1.442,0.755,2.395c0.352,2.187,0.407,4.69,2.215,6.225c1.072,0.91,2.825,0.64,3.222-0.851
		C77.991,47.191,77.255,44.564,77.031,42.386z"/>
    <path d="M62.719,68.062c-3.094,0.05-8.708,0.151-9.329,4.335c-0.598,4.029,3.685,6.618,7.002,7.548
		c1.67,0.468,3.299-1.889,1.797-3.086c-1.036-0.825-2.077-1.647-3.123-2.459c-0.395-0.307-0.744-0.662-1.074-1.036
		c-0.045-0.051-0.073-0.114-0.095-0.17c0.009-0.062,0.019-0.138,0.064-0.217c0.137-0.244,0.445-0.449,0.669-0.609
		c1.324-0.944,2.844-1.868,4.335-2.492C63.864,69.499,63.845,68.042,62.719,68.062z"/>
    <path d="M161.424,67.414c-2.453,0.764-4.151,3.243-6.834,3.38c-2.721,0.139-2.532-3.75-2.392-5.481
		c0.145-1.766-2.906-1.733-2.715,0c0.301,2.738,0.827,6.731,3.764,7.914c3.211,1.294,8.152-0.75,10.017-3.42
		C164.091,68.623,162.73,67.007,161.424,67.414z"/>
    <path d="M149.197,45.409c-4.559,1.031-4.31,7.208-4.01,10.725c0.219,2.569,3.702,2.534,3.965,0
		c0.133-1.285,0.214-3.048,0.894-4.184c0.24-0.402,0.476-0.775,0.692-1.192c0.013-0.025,0.026-0.035,0.039-0.056
		c0.362,0.114,0.728,0.38,1.117,0.65c1.391,0.965,2.223,2.405,4,2.759c1.137,0.227,2.088-0.489,2.166-1.65
		C158.326,48.479,152.92,44.567,149.197,45.409z"/>
</g>
    <g>
</g>
    <g>
</g>
    <g>
</g>
    <g>
</g>
    <g>
</g>
    <g>
</g>
    <g>
</g>
    <g>
</g>
    <g>
</g>
    <g>
</g>
    <g>
</g>
    <g>
</g>
    <g>
</g>
    <g>
</g>
    <g>
</g>
</svg>
