<?xml version="1.0" encoding="utf-8"?>
<!-- Generator: Adobe Illustrator 21.0.0, SVG Export Plug-In . SVG Version: 6.00 Build 0)  -->
<svg version="1.1" id="Layer_1" xmlns="http://www.w3.org/2000/svg" xmlns:xlink="http://www.w3.org/1999/xlink" x="0px"
     y="0px"
     width="30px" height="21.2px" viewBox="0 0 30 21.2" style="enable-background:new 0 0 30 21.2;" xml:space="preserve">
<style type="text/css">
	.st0{fill:#232323;}
</style>
    <path class="st0" d="M27.9,18.6c-0.8-1.8-2-3.5-2.9-5.2c-0.8-1.6-1.8-3-2.8-4.4C24.4,7.1,26.5,5,28.5,3c0,0.9-0.1,2-0.1,2.3
	c0,2.5,0,4.9,0,7.3C28.3,14.1,28.8,17.1,27.9,18.6z M24,19.1c-1,0-2.1-0.1-3.1-0.1c-3.9-0.1-7.8,0-11.6,0.2
	c-1.8,0.1-3.6,0.3-5.5,0.5c2.4-3,4.3-6.8,6.4-10c1.5,1.6,3.4,3.6,5,3.7c1.1,0.1,2.2-0.8,3.1-1.5c1-0.7,2-1.5,3-2.3
	c1.1,1.6,2.1,3.4,3.1,5.2c0.8,1.5,1.5,3.1,2.6,4.4C26.2,19.5,24.8,19.1,24,19.1z M1,2.2C4,3.6,6.6,6.1,9.1,8.5
	c0.1,0.1,0.2,0.2,0.4,0.3c-2.3,3.4-4.8,6.8-7,10.5c-0.1-0.2-0.1-0.6-0.2-1C1.5,13,1.1,7.5,1,2.2z M25.3,1.8c0.4,0,1.8-0.3,2.7-0.2
	c-2.1,2-4.2,4.1-6.4,6.1c-1.1,1-2.3,1.9-3.6,2.8c-1.5,1.1-2.5,1.8-4.1,0.5C10.4,8.1,7.4,4.4,3.7,2C10.9,1.7,18.1,1.9,25.3,1.8z
	 M29.8,6.6c0-1.5,0.6-4.4-0.1-5.8C29.2-0.2,28.4,0,27.6,0C18.7,0.3,9.7,0,0.8,0.5c-0.4,0-0.6,0.3-0.7,0.6C0,1.2,0,1.3,0,1.5
	c0,5.3,0.4,10.7,1.1,15.9c0.1,1,0.1,2.8,0.9,3.4C2.8,21.4,4.2,21.1,5,21c2.1-0.2,4.1-0.3,6.2-0.5c3.9-0.2,7.8-0.2,11.6,0
	c1.8,0.1,6,1.5,6.7-1.4c0.4-1.7,0.1-3.9,0.1-5.6C29.7,11.2,29.7,8.9,29.8,6.6z"/>
</svg>
