<svg height="511pt" viewBox="-3 0 511 511.99873" width="511pt" xmlns="http://www.w3.org/2000/svg">
    <path d="m502.9375 416.125c-3.078125-3.90625-7.664062-5.257812-12.15625-6.136719-5.390625-1.054687-10.8125-1.820312-16.246094-2.378906-3.871094-4.519531-5.933594-10.480469-5.660156-16.429687.277344-6.101563 2.996094-11.988282 7.457031-16.160157.859375-.800781 1.351563-1.832031 1.515625-2.910156 3.953125 1.136719 7.84375 2.285156 11.65625 3.429687 1.472656.445313 3.066406.1875 4.324219-.695312s2.046875-2.292969 2.132813-3.828125c2-35.390625-1.488282-71.859375-10.664063-111.492187-7.449219-32.164063-18.527344-66.121094-34.871094-106.859376-.359375-.902343-.960937-1.628906-1.691406-2.164062 2.664063-32.679688 3.253906-66.472656-.597656-99.742188-.191407-1.617187-.472657-4.0625-1.929688-6.308593-3.292969-5.078125-9.726562-5.238281-12.472656-5.304688l-23.703125-.585937c-1.515625-.046875-2.933594.597656-3.914062 1.730468-.984376 1.132813-1.40625 2.644532-1.160157 4.121094 2.078125 12.320313 2.46875 24.863282 1.164063 37.285156l-11.671875-.117187 2.875-29.753906c.121093-1.265625.347656-3.625-.972657-5.914063-1.664062-2.882812-4.78125-4.246094-9.289062-4.050781l-29.417969 1.261719c-1.503906.066406-2.898437.796875-3.800781 2s-1.21875 2.746094-.859375 4.207031c2.882813 11.792969 4.0625 23.914063 3.511719 36.039063l-15.304688 1.53125-1.121094-37.328126c-.042968-1.375-.140624-4.59375-2.769531-6.828124-2.386719-2.027344-5.304687-1.84375-6.550781-1.765626l-38.523438 2.386719c-1.46875.09375-2.824218.824219-3.707031 2.003907-.882812 1.179687-1.203125 2.691406-.875 4.125 5.816407 25.445312 10.242188 51.246093 13.269531 77.210937-14.789062 1.972656-29.132812 7.117187-41.789062 15.042969-7.21875-4.421875-15.007812-7.667969-23.207031-9.671875-15.441407-44.53125-35.730469-87.265625-60.535157-127.421875-.6875-1.113282-1.96875-3.1875-4.527343-4.171875-3.222657-1.238281-8.132813-.3828128-11.355469 6.121093-17.910156 36.113282-36.277344 73.1875-51.21875 111.585938-10.625-1.5625-21.402344-2.695312-32.105469-3.328125-2.308593-.132813-7.113281-.417969-10.511719 2.988281-2.367187 2.367188-2.917968 5.453125-3.277343 7.492188-2.613281 14.636718-7.382813 29.191406-11.996094 43.265625-1.59375 4.859375-3.242187 9.882812-4.785156 14.863281-18.953125 61.136719-25.546875 125.515625-31.925781 187.773438-.1875 1.808593.621093 3.578124 2.109374 4.621093 1.488282 1.042969 3.425782 1.203125 5.0625.414063 1.527344-.738282 3.078126-1.445313 4.632813-2.140625.597656.4375 1.292969.765625 2.070313.902343 5.191406.917969 9.578124 6.335938 10.199218 12.601563.578125 5.785156-1.644531 12.457031-6.261718 18.785156-.296876.40625-.5.851563-.65625 1.300781-3.460938.015626-6.921876.042969-10.367188.101563-3.234375.050781-7.261719.117187-11.144531 1.722656-4.988281 2.0625-8.441407 6.460938-8.792969 11.203125-.386719 5.203125 2.941406 10.40625 8.289062 12.949219 4.074219 1.9375 8.484376 2.128906 12.023438 2.28125l46.265625 2.011719c72.351563 3.140625 147.132813 6.386718 220.863281 7.484375-.167968 5.351562-.359375 10.695312-.59375 16.007812-.300781 6.863281-.65625 13.800781-1.066406 20.617188-.066406 1.121093-.03125 2.839843.019531 5.011719.074219 3.253906.238281 10.726562-.433593 12.953124-1.445313 1.929688-1.332032 4.679688.390624 6.480469 1.917969 2.003907 5.09375 2.074219 7.097657.160157 9.714843-9.289063 20.589843-17.320313 32.320312-23.878907.039063-.019531.097657-.054687.167969-.089843.039062.035156.085938.074218.132812.117187 3.304688 2.988281 6.203126 6.597656 9.273438 10.421875 5.851562 7.285156 11.902344 14.820312 21.292969 18.390625.578125.21875 1.179687.328125 1.785156.328125.804687 0 1.605469-.195312 2.335937-.578125 1.273438-.671875 2.199219-1.855469 2.539063-3.253906 3.128906-12.835938 3.535156-25.972657 3.921875-38.675781l.761719-24.769532c19.996093 1.953125 40.257812 3.203125 60.308593 3.703125 3.957032.097657 8.046876.175781 12.242188.175781 14.777344 0 30.78125-.957031 46.203125-5.308593 4.957031-1.394531 10.566406-3.421875 14.617187-7.855469 4.386719-4.804688 6.457032-13.207031 1.648438-19.3125zm-40.855469-9.449219c-16.304687-.773437-32.644531 0-48.644531.761719-14.609375.699219-29.65625 1.410156-44.40625.914062l.691406-22.503906c.039063-1.332031-.449218-2.625-1.363281-3.59375-.910156-.972656-2.171875-1.539062-3.503906-1.578125-12.566407-.386719-25.3125-.308593-37.882813.230469-1.246094.054688-3.304687.011719-5.691406-.035156-14.820312-.296875-26.507812-.050782-30.949219 5.882812-2.902343 3.878906-2.371093 9.800782-1.941406 14.558594.105469 1.214844.210937 2.359375.210937 3.082031.003907 2.648438-.007812 5.3125-.023437 7.976563-13.113281 1.136718-26.378906 1.472656-39.644531 1.367187 1.046875-6.660156 1.160156-13.324219 1.253906-19.808593l.027344-1.902344c29.136718-23.953125 70.089844-37.445313 115.394531-37.988282 35.894531-.425781 70.953125 6.738282 102.261719 15.273438-5.394532 5.796875-8.660156 13.476562-9.023438 21.40625-.253906 5.5.894532 11.007812 3.234375 15.957031zm-349.582031-128.160156c-4.554688-6.753906-2.949219-17.34375 3.582031-23.601563 6.199219-5.941406 16.457031-8.273437 26.128907-5.949218 1.789062.433594 3.675781-.152344 4.90625-1.523438 1.230468-1.367187 1.613281-3.304687.996093-5.039062-3.824219-10.734375-7.777343-21.832032-7.457031-33.019532.265625-9.421874 4.714844-20.847656 14.046875-25.132812 11.601563-5.335938 25.914063 2.773438 31.496094 13.382812 1.011719 1.921876 3.144531 2.976563 5.285156 2.609376 2.140625-.363282 3.804687-2.0625 4.125-4.210938 1.914063-12.898438 14.574219-23.691406 28.820313-24.566406 10.507812-.652344 21.699218 3.835937 30.34375 11.773437.285156.359375.628906.664063 1 .933594 1.875 1.824219 3.628906 3.808594 5.203124 5.953125 10.175782 13.828125 12.3125 30.53125 12.3125 42.105469 0 2.421875 1.730469 4.496093 4.109376 4.9375 2.382812.441406 4.734374-.882813 5.601562-3.140625 3.304688-8.632813 7.296875-15 12.207031-19.457032 5.699219-5.179687 12.886719-7.679687 19.222657-6.6875 11.1875 1.757813 18.453124 13.824219 20.46875 24.292969 1.660156 8.636719 1.097656 17.511719.503906 26.90625-.246094 3.898438-.503906 7.929688-.585938 11.933594-.03125 1.644531.742188 3.199219 2.070313 4.164063 1.324219.964843 3.042969 1.21875 4.597656.683593 8.816406-3.0625 16.78125-5.636719 24.957031-6.152343 8.828125-.550782 16.617188 1.613281 21.925782 6.09375 5.636718 4.761718 8.09375 12.78125 5.707031 18.65625-.570313 1.410156-1.296875 2.441406-2.101563 2.980468-1.449218.96875-4.15625 1.003906-6.335937 1.03125l-192.449219 2.480469c-5.585938.070313-11.183594.183594-16.792969.296875-29.25.597656-59.5 1.210938-88.375-4.410156-2.765625-.539063-5.632812-1.183594-7.597656-2.605469-1.367187-.988281-2.246094-2.578125-2-3.617187.265625-1.117188 1.820313-2.394532 4.261719-3.503907 4.183594-1.898437 8.757812-2.859375 13.335937-2.859375 3.617188 0 7.230469.601563 10.65625 1.804688 2.042969.71875 4.316407.046875 5.640625-1.667969 1.320313-1.710937 1.394532-4.078125.183594-5.875zm-21.363281-71.707031c4.476562-17.179688 9.160156-34.761719 14.640625-51.785156 5.089844-15.808594 10.953125-31.410157 17.3125-46.820313l22.59375 20.882813c5.007812 4.625 9.171875 6.136718 12.476562 6.136718 2.207032 0 4.03125-.675781 5.460938-1.539062 2.71875-1.644532 4.1875-4.261719 5.160156-5.992188l14.121094-25.136718 35.195312 13.261718c.429688.160156.867188.238282 1.304688.28125 2.515625 6.554688 4.917968 13.152344 7.214844 19.792969-.101563 1.386719.371093 2.703125 1.253906 3.691406 2.535156 7.480469 4.925781 15.011719 7.183594 22.585938-3.722657-.695313-7.496094-.953125-11.242188-.722657-14.996094.921876-28.6875 10.363282-34.925781 22.976563-3.597657-3.742187-7.96875-6.828125-12.742188-8.914063-8.75-3.820312-17.855469-3.957031-25.636719-.382812-11.300781 5.191406-18.964843 17.902344-19.8125 32.613281zm395.109375 157.285156c-35.75-10.523438-77.488282-20.613281-120.757813-20.09375-44.304687.535156-84.78125 12.972656-115.089843 35.183594l1.007812-68.941406 134.363281-1.730469c3.316407-.042969 7.863281-.101563 11.789063-2.730469 2.511718-1.679688 4.46875-4.21875 5.820312-7.542969 4.011719-9.882812.421875-22.542969-8.535156-30.105469-7.296875-6.15625-17.609375-9.152343-29.027344-8.4375-7.097656.441407-13.75 2.125-20.660156 4.339844.082031-1.449218.175781-2.890625.265625-4.316406.410156-6.503906.832031-13.15625.472656-19.84375 15.875.980469 31.855469 1.492188 47.828125 1.492188 12.0625 0 24.121094-.277344 36.109375-.835938 1.242188-.058594 3.554688-.167969 5.601563-1.789062 2.496094-1.976563 2.9375-4.875 3.148437-6.265626 2.976563-19.5625 5.945313-40.242187 8.222657-61.558593 36.773437 96.003906 41.019531 153.484375 39.441406 193.175781zm-156.175782-313.015625 1.09375 36.417969c.046876 1.542968.1875 6.242187 4.183594 8.535156 2.285156 1.3125 4.632813 1.078125 5.894532.953125l16.792968-1.679687c1.339844-.136719 3.835938-.386719 5.871094-2.316407 2.382812-2.265625 2.535156-5.371093 2.597656-6.695312.546875-11.207031-.277344-22.414063-2.453125-33.398438l23.179688-.992187-3.296875 34.160156c-.136719 1.398438.320312 2.792969 1.261718 3.835938.941407 1.046874 2.277344 1.652343 3.683594 1.664062l17.433594.175781c1.429688.007813 4.09375.039063 6.417969-1.769531 2.84375-2.207031 3.207031-5.632812 3.363281-7.09375 1.203125-11.359375 1.085938-22.8125-.347656-34.132812l17.738281.4375c3.578125.089843 4.210937.625 4.300781.730468.183594.304688.316406 1.453125.378906 2.003906 7.054688 60.925782-1.152343 124.117188-9.441406 178.617188-27.910156 1.277344-56.175781 1.003906-84.074218-.78125-2.890626-14.121094-12.796876-29.296875-28.664063-31.785156-.082031-.011719-.167969-.019532-.253906-.03125-.828125-48.65625-6.542969-97.375-17.003907-144.914063zm-24.375 147.171875c-6.132812 1.226562-12.171874 4.28125-17.242187 8.886719-2.414063 2.195312-4.632813 4.710937-6.671875 7.582031-1.816406-9.941406-5.539062-20.785156-12.71875-30.546875-1.707031-2.316406-3.5625-4.484375-5.539062-6.488281-.882813-9.105469-.621094-18.289063.792968-27.332032 11.410156-7.175781 24.339844-11.855468 37.691406-13.667968 2.101563 20.46875 3.34375 41.023437 3.6875 61.566406zm-51.539062-47.769531c-.882812 6.21875-1.277344 12.492187-1.167969 18.761719-2.109375-1.3125-4.292969-2.46875-6.523437-3.46875-.023438-.351563-.078125-.703126-.179688-1.054688-2.035156-7.054688-4.1875-14.070312-6.460937-21.046875 5.003906 1.722656 9.796875 4 14.332031 6.808594zm-86.089844-138.5625c17.964844 29.324219 33.476563 60.035156 46.429688 91.8125l-30.167969-11.367188c-.765625-.289062-2.558594-.964843-4.671875-.390625-2.742188.746094-4.003906 2.988282-4.476562 3.828125l-15.152344 26.976563c-.425782.761718-1.144532 2.039062-1.597656 2.3125-.449219.273437-2.488282-.195313-5.929688-3.378906l-25.269531-23.351563c12.613281-29.464844 26.855469-58.246094 40.835937-86.441406zm-112.871094 174.523437c1.519532-4.902344 3.152344-9.890625 4.734376-14.707031 4.722656-14.40625 9.605468-29.300781 12.339843-44.632813.109375-.628906.3125-1.769531.472657-2.113281.273437-.101562.988281-.214843 2.839843-.105469 9.679688.570313 19.417969 1.566407 29.042969 2.917969-2.96875 7.992188-5.792969 16.035157-8.402344 24.144531-6.222656 19.332032-11.394531 39.226563-16.398437 58.46875-.386719 1.484376-.074219 3.0625.851562 4.289063.925781 1.222656 2.355469 1.957031 3.890625 1.992187l46.476563 1.09375c.839843 7.027344 2.773437 13.832032 4.917969 20.253907-10.207032-.332031-19.992188 3.078125-26.824219 9.625-7.339844 7.03125-10.488281 17.453125-8.828125 26.773437-7.394532-.746094-14.980469.449219-21.773438 3.53125-5.523437 2.507813-8.847656 5.980469-9.878906 10.324219-1.191406 5.011719 1.171875 10.667969 5.882812 14.074219 3.621094 2.617187 7.867188 3.605468 11.566407 4.324218 20.675781 4.027344 41.765625 4.972657 62.652343 4.972657 9.339844 0 18.640626-.191407 27.84375-.378907 5.582032-.113281 11.15625-.226562 16.714844-.296874l48.046875-.621094-1.015625 69.75c-37.898437-16.90625-72.59375-26.972656-105.785156-30.6875-39.742188-4.449219-77.566406.445312-110.003906 14.15625 6.074218-59.058594 12.851562-119.78125 30.636718-177.148438zm78.25 172.96875c33.285157 3.726563 68.253907 14.105469 106.742188 31.65625l-.042969 2.71875c-.09375 6.589844-.195312 13.371094-1.355469 19.792969-13.246093-.3125-26.453124-.972656-39.46875-1.625-5.035156-.253906-10.066406-.503906-15.097656-.738281-36.125-1.671875-72.832031-2.347656-108.332031-3.003906-10.9375-.203126-22.101563-.40625-33.292969-.472657 3.246094-5.632812 5.957032-12.964843 5.148438-21.089843-.714844-7.171876-4.410156-13.566407-9.640625-17.546876 28.625-10.15625 61.199219-13.515624 95.339843-9.691406zm-65.902343 68.554688-46.261719-2.007813c-2.90625-.125-5.914062-.257812-8.152344-1.320312-1.5-.714844-2.660156-2.121094-2.585937-3.132813.070312-.933594 1.195312-2.085937 2.621093-2.675781 2.117188-.875 4.957032-.921875 7.464844-.960937 18.332032-.296876 37.011719.046874 55.074219.378906 35.433594.65625 72.070313 1.332031 108.054687 2.996094 5.019532.234374 10.039063.484374 15.0625.738281 29.375 1.46875 59.730469 2.980469 89.664063.46875-.003906.402343-.007813.808593-.011719 1.210937-.054687 3.914063-.136718 7.847656-.226562 11.785156-73.625-1.09375-148.378906-4.339843-220.703125-7.480468zm289.578125 41.21875c-.308594 9.996094-.621094 20.269531-2.316406 30.164062-4.289063-3.132812-7.917969-7.648437-11.695313-12.351562-3.183594-3.964844-6.472656-8.058594-10.367187-11.582032-.90625-.820312-3.027344-2.738281-6.050782-2.960937-.199218-.011719-.394531-.019531-.585937-.019531-2.371094 0-4.253907 1.050781-5.296875 1.636718-8.59375 4.800782-16.757813 10.351563-24.378906 16.566407-.011719-1.171875-.03125-2.414063-.0625-3.742188-.039063-1.789062-.078126-3.476562-.035157-4.1875.410157-6.871093.773438-13.859375 1.078125-20.777343.550782-12.640626.921875-25.46875 1.101563-38.125.089843-6.433594.132812-12.964844.128906-19.417969 0-1.167969-.125-2.53125-.253906-3.972657-.167969-1.894531-.5625-6.261718-.011719-7.617187 2.902344-2.28125 17.78125-1.984375 22.707031-1.886719 2.554688.050782 4.757813.09375 6.320313.027344 10.65625-.453125 21.441406-.574219 32.128906-.355469l-.597656 19.433594c-.609375.777344-.996094 1.738281-1.058594 2.800781-.066406 1.148438.277344 2.21875.878906 3.101563zm136.753906-40.515625c-2.34375 2.5625-6.15625 3.898437-9.929688 4.964843-18.449218 5.203126-38.304687 5.183594-55.46875 4.757813-20.035156-.496094-40.277343-1.757813-60.253906-3.726563l.5-16.273437c15.136719.507813 30.382813-.21875 45.191406-.921875 24.828126-1.183594 50.503907-2.40625 74.9375 2.371094 2.597657.507812 5.144532 1.160156 6.199219 2.5 1.117188 1.414062.554688 4.433594-1.175781 6.328125zm0 0"/>
</svg>
