<?xml version="1.0" encoding="iso-8859-1"?>
<!-- Generator: Adobe Illustrator 16.0.0, SVG Export Plug-In . SVG Version: 6.00 Build 0)  -->
<!DOCTYPE svg PUBLIC "-//W3C//DTD SVG 1.1//EN" "http://www.w3.org/Graphics/SVG/1.1/DTD/svg11.dtd">
<svg version="1.1" id="Capa_1" xmlns="http://www.w3.org/2000/svg" xmlns:xlink="http://www.w3.org/1999/xlink" x="0px"
     y="0px"
     width="190.286px" height="190.286px" viewBox="0 0 190.286 190.286"
     style="enable-background:new 0 0 190.286 190.286;"
     xml:space="preserve">
<g>
	<path d="M88.844,0.838C49.167,7.889,22.507,41.272,21.681,81.072c-0.471,22.697,10.603,44.217,24.451,61.409
		c9.394,11.663,20.612,22.409,31.556,32.597c6.621,6.164,13.065,12.753,22.031,15.083c2.244,0.584,3.657-0.964,3.858-2.687
		c20.098-11.955,31.245-24.331,41.272-45.731c11.466-24.473,24.018-51.511,23.767-79.048C168.27,24.582,124.283-5.459,88.844,0.838z
		 M138.738,138.172c-8.911,19.837-20.006,32.693-38.454,44.206c-0.362,0.227-0.621,0.502-0.84,0.79
		c-15.546-6.68-29.589-25.743-40.521-37.653c-15.78-17.193-27.055-35.532-29.875-59.106C24.584,49.085,51.571,16.272,86.867,8.115
		c41.173-9.516,80.114,30.392,73.13,70.836C156.413,99.706,147.295,119.124,138.738,138.172z"/>
    <path d="M130.151,46.654c-8.875-18.244-39.147-21.892-53.673-8.82c-25.151,22.634-11.426,82.95,26.927,72.433
		c0.726,0.534,1.618,0.84,2.598,0.638C132.588,105.426,140.612,68.159,130.151,46.654z M103.495,104.961
		c-0.298,0.131-0.491,0.316-0.706,0.491c-27.066-0.862-40.892-28.564-29.061-53.411c8.04-16.886,30.602-18.983,44.43-7.872
		C139.054,60.958,123.323,96.254,103.495,104.961z"/>
</g>
    <g>
</g>
    <g>
</g>
    <g>
</g>
    <g>
</g>
    <g>
</g>
    <g>
</g>
    <g>
</g>
    <g>
</g>
    <g>
</g>
    <g>
</g>
    <g>
</g>
    <g>
</g>
    <g>
</g>
    <g>
</g>
    <g>
</g>
</svg>
