<?xml version="1.0" encoding="iso-8859-1"?>
<!-- Generator: Adobe Illustrator 18.0.0, SVG Export Plug-In . SVG Version: 6.00 Build 0)  -->
<!DOCTYPE svg PUBLIC "-//W3C//DTD SVG 1.1//EN" "http://www.w3.org/Graphics/SVG/1.1/DTD/svg11.dtd">
<svg version="1.1" id="Capa_1" xmlns="http://www.w3.org/2000/svg" xmlns:xlink="http://www.w3.org/1999/xlink" x="0px"
     y="0px"
     viewBox="0 0 196.117 196.117" style="enable-background:new 0 0 196.117 196.117;" xml:space="preserve">
<g>
	<path d="M175.118,65.857c-0.117-0.334-0.438-0.482-0.757-0.512c0.073-0.608-0.202-1.257-0.911-1.399
		c-18.766-3.768-39.21-2.265-58.194-0.664c-0.003-0.016,0.002-0.029-0.001-0.045c-3.108-13.679,10.677-21.582,11.769-34.095
		c0.394-4.521-0.509-9.115-2.401-13.231C119.367,4.477,107.363-1.273,95.073,0.237c-10.932,1.343-21.975,8.486-25.47,19.36
		c-1.999,6.22-0.968,12.585,1.738,18.395c4.342,9.324,16.518,15.447,15.213,26.694c-0.12-0.045-0.188-0.148-0.339-0.152
		c-20.787-0.506-42.466-0.826-63.048,2.421c-0.665,0.105-0.703,0.871-0.349,1.299c-0.577,0.013-1.132,0.385-1.135,1.16
		c-0.04,9.848,0.511,19.534,0.231,29.234c-0.289,0.026-0.58,0.06-0.868,0.084c-0.588,0.05-0.603,0.965,0,0.93
		c0.27-0.016,0.543-0.024,0.813-0.039c-0.089,2.556-0.193,5.111-0.435,7.673c-0.563,0.051-1.129,0.108-1.691,0.154
		c-0.601,0.049-0.615,0.981,0,0.948c0.53-0.029,1.066-0.047,1.598-0.072c-0.248,2.381-0.549,4.765-0.983,7.157
		c-0.194,1.071,1.061,1.532,1.647,0.844c5.102,3.243,9.696,2.397,15.203,0.276c7.718-2.972,13.688-6.595,22.327-6.006
		c9.752,0.666,19.143,7.569,20.707,17.543c1.198,7.644-4.735,21.401-14.354,21.891c-7.865,0.401-13.308-5.391-19.411-8.908
		c-6.83-3.935-14.569-4.259-21.849-1.498c-0.656,0.249-0.954,0.794-0.975,1.339c-0.218-0.135-0.479-0.247-0.929-0.401
		c-0.631-0.217-1.23,0.253-1.435,0.815c-2.509,6.864-0.399,14.299,0.065,21.411c0.615,9.414,0.23,18.735-0.36,28.136
		c-0.093,0.401,0.004,0.846,0.35,1.141c0.166,0.158,0.381,0.245,0.61,0.293c19.35,6.447,44.34,3.032,64.233,1.205
		c1.915-0.176,1.964-3.158,0-3.031c-19.761,1.283-42.708,4.292-62.295-0.157c0.165-1.548,0.285-3.097,0.4-4.647
		c9.692-1.091,19.414-1.517,29.166-1.721c0.911-0.019,0.908-1.378,0-1.413c-9.757-0.378-19.41,0.4-29.052,1.777
		c0.164-2.504,0.231-5.013,0.273-7.521c4.969,0.069,9.932,0.187,14.896-0.093c0.894-0.051,0.901-1.355,0-1.395
		c-4.95-0.217-9.896-0.038-14.846,0.094c0.015-1.899-0.056-3.801-0.106-5.702c6.065-0.953,12.125-0.965,18.26-0.387
		c0.703,0.066,0.87-1.118,0.168-1.242c-6.183-1.095-12.328-0.835-18.453,0.263c-0.021-0.611-0.007-1.222-0.034-1.833
		c-0.087-1.958-0.299-3.905-0.453-5.856c3.899,0.398,7.852,0.464,11.696-0.391c0.675-0.15,0.541-1.279-0.166-1.223
		c-3.891,0.309-7.716,0.656-11.62,0.454c-0.122-1.421-0.177-2.847-0.33-4.266c-0.024-0.224-0.07-0.947-0.12-1.919
		c4.436-0.473,8.897-0.593,13.358-0.527c0.754,0.011,0.726-1.085,0-1.153c-4.519-0.425-8.947-0.175-13.418,0.436
		c-0.17-3.818-0.319-9.615,0.175-9.3c0.368,0.235,0.844-0.052,0.95-0.424c0.222,0.057,0.466,0.076,0.75-0.001
		c12.855-3.452,18.127,2.192,28.215,8.326c4.316,2.624,8.084,3.951,13.17,2.533c8.95-2.495,16.728-11.587,17.087-20.876
		c0.374-9.638-5.617-18.453-14.216-22.466c-5.334-2.49-11.529-3.055-17.303-2.228c-9.466,1.355-19.779,10.947-29.201,6.518
		c-0.138-0.065-0.272-0.088-0.403-0.106c0.514-1.936,0.921-3.901,1.263-5.882c3.665-0.154,7.338-0.308,10.966-0.733
		c0.728-0.085,0.773-1.186,0-1.171c-3.598,0.069-7.203,0.405-10.801,0.745c0.392-2.499,0.638-5.03,0.815-7.572
		c4.699-0.198,9.446-0.354,14.055-1.097c0.551-0.089,0.399-0.941-0.129-0.95c-4.592-0.076-9.236,0.442-13.84,0.915
		c0.16-2.743,0.196-5.502,0.175-8.261c7.455,0.355,14.856,0.242,22.267-0.72c0.735-0.095,0.785-1.231,0-1.19
		c-7.43,0.392-14.857,0.705-22.298,0.625c-0.04-2.501-0.17-4.992-0.299-7.48c11.708,0.005,23.571-0.025,35.185-1.482
		c0.758-0.095,0.813-1.243,0-1.227c-11.754,0.233-23.477,1.147-35.239,1.362c-0.112-1.974-0.267-3.906-0.406-5.858
		c5.712-0.316,11.415-0.667,17.118-1.119c0.744-0.059,0.756-1.222,0-1.171c-5.736,0.382-11.457,0.865-17.181,1.383
		c-0.092-1.26-0.162-2.546-0.263-3.791c-0.031-0.385-0.198-0.676-0.431-0.872c20.796,0.244,41.707-1.487,62.528-1.702
		c0.413-0.004,0.683-0.195,0.866-0.45c0.239,0.047,0.489-0.004,0.641-0.302c0.602-1.184,0.944-2.284,1.179-3.351
		c2.485-0.486,4.988-0.564,7.514-0.414c0.69,0.041,0.864-1.11,0.166-1.224c-2.559-0.415-4.998-0.21-7.464,0.436
		c0.299-2.821-0.603-5.307-2.121-7.754c2.829,0.103,5.641-0.272,8.3-1.362c0.665-0.273,0.424-1.332-0.307-1.112
		c-2.924,0.88-5.808,1.351-8.807,1.243c-0.94-1.337-2.026-2.677-3.204-4.067c-3.813-4.502-7.494-8.949-9.5-14.058
		c5.887-0.078,11.807-0.067,17.648-0.726c0.758-0.085,0.795-1.175,0-1.208c-6.024-0.255-12.084,0.202-18.112,0.542
		c-0.837-2.592-1.228-5.364-0.98-8.403c7.472-0.307,14.947-0.554,22.407-1.078c1.005-0.071,1.025-1.622,0-1.58
		c-7.435,0.303-14.854,0.882-22.276,1.402c0.422-2.948,1.53-5.591,3.057-7.957c8.946,0.192,17.901-0.122,26.709-1.789
		c0.814-0.154,0.64-1.544-0.198-1.461c-8.498,0.839-16.939,1.663-25.47,1.806c4.142-5.397,10.715-8.998,17.351-10.24
		c19.45-3.638,36.941,14.903,27.582,33.809c-4.711,9.517-11.476,15.313-8.917,26.518c0.186,0.816,0.822,1.12,1.462,1.08
		c0.177,0.293,0.447,0.527,0.916,0.536c19.625,0.386,38.827-0.633,58.447,0.828c0.176,0.013,0.334-0.013,0.476-0.065
		c1.837,16.57-0.179,33.882-0.333,50.539c-8.714,3.862-16.11-5.935-23.052-8.781c-4.296-1.761-8.946-2.336-13.535-1.479
		c-9.299,1.736-16.637,8.6-19.849,17.408c-2.913,7.988-2.658,18.479,4.113,24.513c5.616,5.005,14.938,6.533,21.91,3.652
		c0.277,0.191,0.645,0.243,1.053-0.003c9.156-5.511,17.744-10.74,28.517-11.253c-0.014,16.769,0.218,33.567,0.868,50.324
		c-19.143-1.716-39.394-2.928-58.504-0.495c-3.359-10.614,8.227-19.585,3.862-30.174c-3.271-7.935-13.251-11.461-21.199-11.404
		c-7.552,0.054-14.472,3.611-16.347,11.332c-2.55,10.495,4.848,20.28,6.996,30.123c0.276,1.266,2.458,1.014,2.301-0.311
		c-0.783-6.618-3.803-12.272-5.569-18.607c-1.741-6.249-1.642-12.818,4.005-17.232c3.699-2.891,10.695-2.464,14.848-1.344
		c5.439,1.466,10.399,4.308,12.017,9.953c1.494,5.213-0.963,9.372-2.813,14.186c-2.05,5.334-3.149,10.127-0.503,15.369
		c0.516,1.022,1.918,0.793,2.476,0.028c19.46,1.235,39.095,0.733,58.6,1.696c1.05,0.052,1.526-0.743,1.476-1.543
		c0.465-0.13,0.851-0.503,0.857-1.142c0.14-16.96-0.154-33.949-0.695-50.901c-0.002-0.078-0.035-0.135-0.048-0.206
		c1.013-0.665,0.704-2.546-0.819-2.708c-10.645-1.134-20.424,4.443-28.809,10.562c-0.076,0.02-0.135-0.018-0.214,0.018
		c-5.373,2.443-10.771,2.69-16.195,0.742c-3.321-3.262-6.642-6.523-9.963-9.784c-2.249-4.95-0.287-12.447,2.095-17.096
		c6.525-12.735,20.653-15.596,32.43-8.535c6.749,4.046,13.094,8.497,20.007,4.059c0.697,0.78,2.333,0.502,2.375-0.86
		c0.288-9.377,0.424-18.763,0.585-28.143C176.656,81.232,177.692,73.222,175.118,65.857z"/>
    <path d="M35.737,145.779c-3.769-0.821-7.533-0.968-11.377-0.67c-0.649,0.05-0.664,1.053,0,1.023
		c3.723-0.171,7.415,0.117,11.1,0.652C36.105,146.876,36.407,145.925,35.737,145.779z"/>
    <path d="M91.13,41.841c-3.765-0.488-7.703-0.095-11.394,0.747c-0.755,0.172-0.411,1.228,0.311,1.13
		c3.716-0.505,7.342-0.555,11.083-0.575C91.993,43.138,91.935,41.945,91.13,41.841z"/>
    <path d="M105.673,6.701c-7.178-0.522-14.271,0.137-21.345,1.386c-0.918,0.162-0.511,1.504,0.381,1.38
		c6.964-0.963,13.943-1.187,20.964-1.26C106.652,8.197,106.631,6.771,105.673,6.701z"/>
</g>
    <g>
</g>
    <g>
</g>
    <g>
</g>
    <g>
</g>
    <g>
</g>
    <g>
</g>
    <g>
</g>
    <g>
</g>
    <g>
</g>
    <g>
</g>
    <g>
</g>
    <g>
</g>
    <g>
</g>
    <g>
</g>
    <g>
</g>
</svg>
