<?xml version="1.0"?>
<svg xmlns="http://www.w3.org/2000/svg" xmlns:xlink="http://www.w3.org/1999/xlink" version="1.1" id="Capa_1" x="0px"
     y="0px" viewBox="0 0 64.115 64.115" style="enable-background:new 0 0 64.115 64.115;" xml:space="preserve"
     width="512px" height="512px"><g transform="matrix(-1 0 0 1 64.115 0)"><g>
	<path d="M31.797,34.768c-0.78,0.323-1.332,0.82-0.884,1.705c0.728,1.435,0.256,2.647-0.745,3.613   c-4.023,3.883-6.897,8.66-10.23,13.074c-2.481,3.286-4.719,6.754-7.159,10.073c-0.369,0.502-1.261,0.911-1.888,0.88   c-2.612-0.128-4.807-1.273-6.319-3.419c-1.07-1.518-0.643-3.342,0.683-5.007c3.557-4.468,7.098-8.951,10.554-13.497   c1.648-2.167,3.086-4.495,4.623-6.747c1.102-1.614,2.195-3.197,4.597-2.255c0.294,0.115,1.03-0.223,1.163-0.526   c0.193-0.442,0.193-1.122-0.018-1.561c-1.033-2.15-2.545-4.147-3.177-6.398c-1.285-4.576-1.868-9.362,0.515-13.766   C29.665-0.444,41.932-3.254,51.828,3.977c5.341,3.903,7.933,9.201,8.297,15.853c0.317,5.801-2.619,9.827-6.281,13.663   c-3.134,3.283-7.29,3.651-11.426,4.001C38.588,37.819,35.089,36.673,31.797,34.768z M50.797,6.539   c-0.661-1.194-1.679-1.834-3.032-1.958c-0.518-0.377-1-0.816-1.558-1.12c-4.858-2.644-13.955-0.42-17.225,3.315   c-3.155,3.605-5.409,7.381-4.927,12.473c0.338,3.573,1.46,6.752,3.276,9.771c1.019,1.695,2.097,3.409,0.432,5.233   c0.843,0.977,1.365,0.772,1.814-0.107c0.428-0.839,0.893-1.659,1.395-2.586c0.624,0.345,0.97,0.547,1.326,0.731   c1.611,0.837,3.146,1.92,4.852,2.453c4.188,1.308,8.343,0.307,12.457-0.655c0.39-0.091,0.772-0.328,1.094-0.579   c4.998-3.911,8.385-8.613,7.443-15.407c-0.214,2.868-1.345,5.456-2.749,7.864c-2.578,4.42-6.605,7.108-11.649,7.341   c-6.165,0.284-11.544-1.819-15.132-7.259c-0.678-1.029-1.758-2.085-1.817-3.172c-0.155-2.867-0.242-5.846,0.374-8.618   c0.724-3.258,2.842-5.754,5.605-7.891c2.83-2.189,5.771-3.187,9.208-2.842c1.955,0.195,3.883,0.661,5.824,1.005   c1.01,0.655,2.02,1.31,3.029,1.964c1.722,1.992,3.444,3.984,5.166,5.976C54.72,10.091,53.674,7.499,50.797,6.539z M28.464,20.474   c0.245,0.774,0.402,2.151,1.064,3.211c2.496,3.996,6.124,6.326,10.831,7.078c3.425,0.547,6.571,0.049,9.528-1.741   c3.59-2.173,4.88-5.876,6.27-9.495c0.155-0.404-0.05-0.977-0.169-1.452c-1.381-5.517-4.885-9.558-9.954-11.55   c-6.623-2.603-11.104-0.477-15.211,4.696C28.823,13.741,28.732,16.876,28.464,20.474z M8.579,55.032   c1.115,0.608,2.135,1.164,3.156,1.72c-0.955,0.252-1.742,0.103-2.515-0.102c-1.346-0.357-1.342-0.371-2.069,0.652   c1.11,0.519,2.201,1.028,3.291,1.537c-0.047,0.105-0.094,0.21-0.142,0.315c-1.232-0.158-2.464-0.316-3.696-0.474   c0.187,1.032,0.536,1.681,1.049,2.154c1.537,1.417,2.801,1.232,4.08-0.45c2.755-3.621,5.524-7.232,8.303-10.835   c2.62-3.396,5.271-6.767,7.876-10.174c0.383-0.501,0.583-1.142,0.902-1.785c-1.347-1.585-3.265-1.64-4.899-2.46   c-0.661,0.745-1.242,1.401-1.832,2.067c1.317,1.019,3.009,0.831,4.384,2.507c-2.074-0.518-3.609-0.9-5.366-1.339   c-0.42,0.549-0.992,1.296-1.67,2.182c0.934,0.48,1.582,0.815,2.233,1.148c0.571,0.292,1.144,0.581,1.716,0.87   c-0.068,0.143-0.137,0.286-0.206,0.429c-1.481-0.389-2.962-0.777-4.558-1.196c-0.465,0.738-0.884,1.402-1.306,2.073   c0.541,0.362,0.933,0.624,1.326,0.887c-2.015,0.191-3.361,0.719-3.774,2.794c1.302,0.536,2.508,1.032,3.715,1.528   c-0.051,0.156-0.103,0.313-0.154,0.469c-1.089-0.26-2.169-0.574-3.269-0.77c-1.793-0.319-2.058-0.143-2.683,1.482   c0.786,0.445,1.575,0.892,2.567,1.453c-1.588,0.747-3.358-1.61-4.372,0.937c0.988,0.557,1.941,1.095,2.884,1.627   C11.864,55.202,10.052,52.414,8.579,55.032z"
          data-original="#231F20" class="active-path" fill="#231F20"/>
	<path d="M42.491,27.364c5.695-1.113,8.85-4.285,10.223-9.685c0.506,0.632,1.033,1.009,0.982,1.274   c-0.217,1.121-0.368,2.37-0.98,3.277c-1.535,2.273-3.492,4.186-6.07,5.297C45.488,28.027,44.265,28.434,42.491,27.364z"
          data-original="#231F20" class="active-path" fill="#231F20"/>
</g></g> </svg>
